<?xml version="1.0" encoding="UTF-8"?>
<!DOCTYPE svg PUBLIC "-//W3C//DTD SVG 1.1//EN" "http://www.w3.org/Graphics/SVG/1.1/DTD/svg11.dtd">
<svg version="1.1" xmlns="http://www.w3.org/2000/svg" xmlns:xlink="http://www.w3.org/1999/xlink" x="0" y="0" width="800" height="800" viewBox="0, 0, 800, 800">
  <defs>
    <radialGradient id="Gradient_1" gradientUnits="userSpaceOnUse" cx="249.103" cy="251.008" r="43.829" gradientTransform="matrix(1, 0, 0, 1.215, 0, -53.996)">
      <stop offset="0.484" stop-color="#FFFFFF"/>
      <stop offset="0.914" stop-color="#FFFFFF"/>
      <stop offset="0.995" stop-color="#939598"/>
    </radialGradient>
    <linearGradient id="Gradient_2" gradientUnits="userSpaceOnUse" x1="249.103" y1="290.479" x2="249.103" y2="307.351">
      <stop offset="0.043" stop-color="#6D6E71"/>
      <stop offset="0.054" stop-color="#8A8B8D"/>
      <stop offset="0.071" stop-color="#AEAEB0"/>
      <stop offset="0.088" stop-color="#CBCCCD"/>
      <stop offset="0.106" stop-color="#E2E2E3"/>
      <stop offset="0.126" stop-color="#F2F2F3"/>
      <stop offset="0.148" stop-color="#FCFCFC"/>
      <stop offset="0.177" stop-color="#FFFFFF"/>
      <stop offset="0.55" stop-color="#FFFFFF"/>
      <stop offset="0.608" stop-color="#FFFFFF"/>
      <stop offset="0.662" stop-color="#FBFBFB"/>
      <stop offset="0.719" stop-color="#EEEEEE"/>
      <stop offset="0.777" stop-color="#D9D9D9"/>
      <stop offset="0.836" stop-color="#BCBCBC"/>
      <stop offset="0.895" stop-color="#969697"/>
      <stop offset="0.955" stop-color="#696869"/>
      <stop offset="1" stop-color="#414042"/>
    </linearGradient>
    <linearGradient id="Gradient_3" gradientUnits="userSpaceOnUse" x1="218.861" y1="251.007" x2="279.346" y2="251.007">
      <stop offset="0.016" stop-color="#BCBEC0" stop-opacity="0.4"/>
      <stop offset="0.059" stop-color="#E6E7E8" stop-opacity="0.4"/>
      <stop offset="0.064" stop-color="#C9CACB" stop-opacity="0.388"/>
      <stop offset="0.072" stop-color="#A1A2A3" stop-opacity="0.369"/>
      <stop offset="0.081" stop-color="#818284" stop-opacity="0.35"/>
      <stop offset="0.088" stop-color="#6A6B6D" stop-opacity="0.332"/>
      <stop offset="0.096" stop-color="#5D5E60" stop-opacity="0.315"/>
      <stop offset="0.102" stop-color="#58595B" stop-opacity="0.3"/>
      <stop offset="0.145" stop-color="#D1D3D4"/>
      <stop offset="0.21" stop-color="#D1D3D4" stop-opacity="0.7"/>
      <stop offset="0.333" stop-color="#FFFFFF" stop-opacity="0.5"/>
      <stop offset="0.484" stop-color="#E6E7E8" stop-opacity="0.2"/>
      <stop offset="0.65" stop-color="#FFFFFF" stop-opacity="0"/>
      <stop offset="0.758" stop-color="#E6E7E8" stop-opacity="0.7"/>
      <stop offset="0.839" stop-color="#E6E7E8" stop-opacity="0.2"/>
      <stop offset="0.84" stop-color="#E1E2E3" stop-opacity="0.207"/>
      <stop offset="0.853" stop-color="#A8A7A8" stop-opacity="0.285"/>
      <stop offset="0.865" stop-color="#787677" stop-opacity="0.361"/>
      <stop offset="0.876" stop-color="#535051" stop-opacity="0.432"/>
      <stop offset="0.887" stop-color="#393536" stop-opacity="0.498"/>
      <stop offset="0.896" stop-color="#292526" stop-opacity="0.556"/>
      <stop offset="0.903" stop-color="#231F20" stop-opacity="0.6"/>
      <stop offset="0.952" stop-color="#D1D3D4"/>
      <stop offset="1" stop-color="#939598" stop-opacity="0.2"/>
    </linearGradient>
    <linearGradient id="Gradient_4" gradientUnits="userSpaceOnUse" x1="214.53" y1="297.766" x2="283.683" y2="297.766">
      <stop offset="0.024" stop-color="#E6E7E8" stop-opacity="0.7"/>
      <stop offset="0.032" stop-color="#C2C2C3" stop-opacity="0.657"/>
      <stop offset="0.045" stop-color="#929091" stop-opacity="0.592"/>
      <stop offset="0.057" stop-color="#6A6869" stop-opacity="0.529"/>
      <stop offset="0.07" stop-color="#4B4849" stop-opacity="0.467"/>
      <stop offset="0.081" stop-color="#353132" stop-opacity="0.407"/>
      <stop offset="0.092" stop-color="#282425" stop-opacity="0.35"/>
      <stop offset="0.102" stop-color="#231F20" stop-opacity="0.3"/>
      <stop offset="0.145" stop-color="#D1D3D4"/>
      <stop offset="0.21" stop-color="#D1D3D4" stop-opacity="0.7"/>
      <stop offset="0.333" stop-color="#FFFFFF" stop-opacity="0"/>
      <stop offset="0.484" stop-color="#E6E7E8" stop-opacity="0.2"/>
      <stop offset="0.65" stop-color="#FFFFFF" stop-opacity="0"/>
      <stop offset="0.758" stop-color="#E6E7E8" stop-opacity="0.7"/>
      <stop offset="0.839" stop-color="#E6E7E8" stop-opacity="0.2"/>
      <stop offset="0.84" stop-color="#E1E2E3" stop-opacity="0.207"/>
      <stop offset="0.853" stop-color="#A8A7A8" stop-opacity="0.285"/>
      <stop offset="0.865" stop-color="#787677" stop-opacity="0.361"/>
      <stop offset="0.876" stop-color="#535051" stop-opacity="0.432"/>
      <stop offset="0.887" stop-color="#393536" stop-opacity="0.498"/>
      <stop offset="0.896" stop-color="#292526" stop-opacity="0.556"/>
      <stop offset="0.903" stop-color="#231F20" stop-opacity="0.6"/>
      <stop offset="0.952" stop-color="#D1D3D4"/>
      <stop offset="1" stop-color="#939598" stop-opacity="0.2"/>
    </linearGradient>
    <linearGradient id="Gradient_5" gradientUnits="userSpaceOnUse" x1="249.106" y1="290.479" x2="249.106" y2="307.351">
      <stop offset="0.043" stop-color="#6D6E71"/>
      <stop offset="0.078" stop-color="#8A8B8D"/>
      <stop offset="0.13" stop-color="#AEAEB0"/>
      <stop offset="0.185" stop-color="#CBCCCD"/>
      <stop offset="0.243" stop-color="#E2E2E3"/>
      <stop offset="0.306" stop-color="#F2F2F3"/>
      <stop offset="0.375" stop-color="#FCFCFC"/>
      <stop offset="0.468" stop-color="#FFFFFF"/>
      <stop offset="0.594" stop-color="#FCFCFC"/>
      <stop offset="0.674" stop-color="#F4F4F4"/>
      <stop offset="0.74" stop-color="#E5E5E5"/>
      <stop offset="0.8" stop-color="#D1D0D1"/>
      <stop offset="0.854" stop-color="#B6B6B6"/>
      <stop offset="0.905" stop-color="#959596"/>
      <stop offset="0.953" stop-color="#6F6E70"/>
      <stop offset="0.998" stop-color="#434244"/>
      <stop offset="1" stop-color="#414042"/>
    </linearGradient>
    <linearGradient id="Gradient_6" gradientUnits="userSpaceOnUse" x1="254.069" y1="210.528" x2="269.077" y2="210.528">
      <stop offset="0.024" stop-color="#FFFFFF"/>
      <stop offset="0.952" stop-color="#FFFFFF" stop-opacity="0"/>
    </linearGradient>
    <linearGradient id="Gradient_7" gradientUnits="userSpaceOnUse" x1="240.252" y1="202.274" x2="270.252" y2="254.148">
      <stop offset="0.024" stop-color="#FFFFFF"/>
      <stop offset="0.952" stop-color="#FFFFFF" stop-opacity="0"/>
    </linearGradient>
    <radialGradient id="Gradient_8" gradientUnits="userSpaceOnUse" cx="349.7" cy="251.008" r="43.829" gradientTransform="matrix(1, 0, 0, 1.215, 0, -53.996)">
      <stop offset="0.484" stop-color="#00AEEF"/>
      <stop offset="0.914" stop-color="#00AEEF"/>
      <stop offset="0.995" stop-color="#1C75BC"/>
    </radialGradient>
    <linearGradient id="Gradient_9" gradientUnits="userSpaceOnUse" x1="349.7" y1="290.479" x2="349.7" y2="307.351">
      <stop offset="0.043" stop-color="#1C75BC"/>
      <stop offset="0.048" stop-color="#197AC1"/>
      <stop offset="0.075" stop-color="#0E91D5"/>
      <stop offset="0.103" stop-color="#06A1E4"/>
      <stop offset="0.135" stop-color="#01ABEC"/>
      <stop offset="0.177" stop-color="#00AEEF"/>
      <stop offset="0.55" stop-color="#00AEEF"/>
      <stop offset="0.608" stop-color="#00AEEF"/>
      <stop offset="0.709" stop-color="#02AAEB"/>
      <stop offset="0.816" stop-color="#089DE0"/>
      <stop offset="0.924" stop-color="#1388CD"/>
      <stop offset="1" stop-color="#1C75BC"/>
    </linearGradient>
    <linearGradient id="Gradient_10" gradientUnits="userSpaceOnUse" x1="319.457" y1="251.007" x2="379.943" y2="251.007">
      <stop offset="0.016" stop-color="#BCBEC0" stop-opacity="0.4"/>
      <stop offset="0.059" stop-color="#E6E7E8" stop-opacity="0.4"/>
      <stop offset="0.064" stop-color="#BFD1DF" stop-opacity="0.389"/>
      <stop offset="0.071" stop-color="#8DB5D5" stop-opacity="0.373"/>
      <stop offset="0.078" stop-color="#659ECC" stop-opacity="0.357"/>
      <stop offset="0.084" stop-color="#458CC5" stop-opacity="0.341"/>
      <stop offset="0.091" stop-color="#2E7FC0" stop-opacity="0.326"/>
      <stop offset="0.097" stop-color="#2178BD" stop-opacity="0.312"/>
      <stop offset="0.102" stop-color="#1C75BC" stop-opacity="0.3"/>
      <stop offset="0.145" stop-color="#00AEEF"/>
      <stop offset="0.21" stop-color="#00AEEF" stop-opacity="0.7"/>
      <stop offset="0.333" stop-color="#00DCEF" stop-opacity="0.5"/>
      <stop offset="0.484" stop-color="#E6E7E8" stop-opacity="0.2"/>
      <stop offset="0.65" stop-color="#00D7EF" stop-opacity="0"/>
      <stop offset="0.758" stop-color="#00AEEF" stop-opacity="0.7"/>
      <stop offset="0.839" stop-color="#00AEEF" stop-opacity="0.2"/>
      <stop offset="0.844" stop-color="#04A6E8" stop-opacity="0.235"/>
      <stop offset="0.867" stop-color="#118BD0" stop-opacity="0.377"/>
      <stop offset="0.888" stop-color="#197BC1" stop-opacity="0.504"/>
      <stop offset="0.903" stop-color="#1C75BC" stop-opacity="0.6"/>
      <stop offset="0.952" stop-color="#00AEEF"/>
      <stop offset="1" stop-color="#939598" stop-opacity="0.2"/>
    </linearGradient>
    <linearGradient id="Gradient_11" gradientUnits="userSpaceOnUse" x1="316.445" y1="297.766" x2="385.598" y2="297.766">
      <stop offset="0.016" stop-color="#BCBEC0" stop-opacity="0.4"/>
      <stop offset="0.059" stop-color="#E6E7E8" stop-opacity="0.4"/>
      <stop offset="0.064" stop-color="#BFD1DF" stop-opacity="0.389"/>
      <stop offset="0.071" stop-color="#8DB5D5" stop-opacity="0.373"/>
      <stop offset="0.078" stop-color="#659ECC" stop-opacity="0.357"/>
      <stop offset="0.084" stop-color="#458CC5" stop-opacity="0.341"/>
      <stop offset="0.091" stop-color="#2E7FC0" stop-opacity="0.326"/>
      <stop offset="0.097" stop-color="#2178BD" stop-opacity="0.312"/>
      <stop offset="0.102" stop-color="#1C75BC" stop-opacity="0.3"/>
      <stop offset="0.145" stop-color="#00AEEF"/>
      <stop offset="0.21" stop-color="#00AEEF" stop-opacity="0.7"/>
      <stop offset="0.333" stop-color="#FFFFFF" stop-opacity="0.5"/>
      <stop offset="0.484" stop-color="#00AEEF" stop-opacity="0.2"/>
      <stop offset="0.65" stop-color="#00AEEF" stop-opacity="0"/>
      <stop offset="0.758" stop-color="#00AEEF" stop-opacity="0.7"/>
      <stop offset="0.839" stop-color="#E6E7E8" stop-opacity="0.2"/>
      <stop offset="0.84" stop-color="#DFE3E6" stop-opacity="0.209"/>
      <stop offset="0.853" stop-color="#A4C2DA" stop-opacity="0.287"/>
      <stop offset="0.865" stop-color="#73A6CF" stop-opacity="0.363"/>
      <stop offset="0.876" stop-color="#4D91C7" stop-opacity="0.433"/>
      <stop offset="0.887" stop-color="#3282C1" stop-opacity="0.499"/>
      <stop offset="0.896" stop-color="#2278BD" stop-opacity="0.556"/>
      <stop offset="0.903" stop-color="#1C75BC" stop-opacity="0.6"/>
      <stop offset="0.952" stop-color="#00AEEF"/>
      <stop offset="1" stop-color="#939598" stop-opacity="0.2"/>
    </linearGradient>
    <linearGradient id="Gradient_12" gradientUnits="userSpaceOnUse" x1="354.666" y1="210.528" x2="369.673" y2="210.528">
      <stop offset="0.024" stop-color="#00AEEF"/>
      <stop offset="0.35" stop-color="#5BCBF5" stop-opacity="0.649"/>
      <stop offset="0.952" stop-color="#FFFFFF" stop-opacity="0"/>
    </linearGradient>
    <linearGradient id="Gradient_13" gradientUnits="userSpaceOnUse" x1="340.849" y1="202.274" x2="370.848" y2="254.148">
      <stop offset="0.024" stop-color="#00AEEF"/>
      <stop offset="0.35" stop-color="#5BCBF5" stop-opacity="0.649"/>
      <stop offset="0.952" stop-color="#FFFFFF" stop-opacity="0"/>
    </linearGradient>
    <radialGradient id="Gradient_14" gradientUnits="userSpaceOnUse" cx="450.297" cy="251.008" r="43.829" gradientTransform="matrix(1, 0, 0, 1.215, 0, -53.996)">
      <stop offset="0.484" stop-color="#FFF200"/>
      <stop offset="0.914" stop-color="#FFFFFF"/>
      <stop offset="0.995" stop-color="#F9AC00"/>
    </radialGradient>
    <linearGradient id="Gradient_15" gradientUnits="userSpaceOnUse" x1="450.297" y1="290.479" x2="450.297" y2="307.351">
      <stop offset="0.043" stop-color="#FBB040"/>
      <stop offset="0.066" stop-color="#FCC131"/>
      <stop offset="0.097" stop-color="#FED122"/>
      <stop offset="0.131" stop-color="#FFDB1A"/>
      <stop offset="0.177" stop-color="#FFDE17"/>
      <stop offset="0.55" stop-color="#FFDE17"/>
      <stop offset="0.608" stop-color="#FFDE17"/>
      <stop offset="0.721" stop-color="#FFDA1B"/>
      <stop offset="0.84" stop-color="#FECD26"/>
      <stop offset="0.962" stop-color="#FCB839"/>
      <stop offset="1" stop-color="#FBB040"/>
    </linearGradient>
    <linearGradient id="Gradient_16" gradientUnits="userSpaceOnUse" x1="420.054" y1="251.007" x2="480.54" y2="251.007">
      <stop offset="0.016" stop-color="#FBB040" stop-opacity="0.4"/>
      <stop offset="0.059" stop-color="#FFF200" stop-opacity="0.4"/>
      <stop offset="0.102" stop-color="#FFF200" stop-opacity="0.3"/>
      <stop offset="0.145" stop-color="#FFF200"/>
      <stop offset="0.21" stop-color="#F9C732" stop-opacity="0.7"/>
      <stop offset="0.333" stop-color="#F9ED32" stop-opacity="0.5"/>
      <stop offset="0.484" stop-color="#F9ED32" stop-opacity="0.2"/>
      <stop offset="0.65" stop-color="#F9ED32" stop-opacity="0"/>
      <stop offset="0.758" stop-color="#F9ED32" stop-opacity="0.7"/>
      <stop offset="0.839" stop-color="#F9ED32" stop-opacity="0.2"/>
      <stop offset="0.847" stop-color="#F9E135" stop-opacity="0.25"/>
      <stop offset="0.869" stop-color="#FAC63B" stop-opacity="0.387"/>
      <stop offset="0.888" stop-color="#FBB63F" stop-opacity="0.508"/>
      <stop offset="0.903" stop-color="#FBB040" stop-opacity="0.6"/>
      <stop offset="0.952" stop-color="#D7DF23"/>
      <stop offset="1" stop-color="#FBB040" stop-opacity="0.2"/>
    </linearGradient>
    <linearGradient id="Gradient_17" gradientUnits="userSpaceOnUse" x1="415.151" y1="297.766" x2="484.304" y2="297.766">
      <stop offset="0.024" stop-color="#FFF200" stop-opacity="0.7"/>
      <stop offset="0.042" stop-color="#FDD918" stop-opacity="0.607"/>
      <stop offset="0.064" stop-color="#FCC22E" stop-opacity="0.497"/>
      <stop offset="0.084" stop-color="#FBB53B" stop-opacity="0.392"/>
      <stop offset="0.102" stop-color="#FBB040" stop-opacity="0.3"/>
      <stop offset="0.145" stop-color="#F9ED32"/>
      <stop offset="0.21" stop-color="#F9ED32" stop-opacity="0.7"/>
      <stop offset="0.333" stop-color="#F9ED32" stop-opacity="0"/>
      <stop offset="0.484" stop-color="#F9ED32" stop-opacity="0.2"/>
      <stop offset="0.65" stop-color="#F9ED32" stop-opacity="0"/>
      <stop offset="0.758" stop-color="#F9ED32" stop-opacity="0.7"/>
      <stop offset="0.839" stop-color="#F9ED32" stop-opacity="0.2"/>
      <stop offset="0.847" stop-color="#F9E135" stop-opacity="0.25"/>
      <stop offset="0.869" stop-color="#FAC63B" stop-opacity="0.387"/>
      <stop offset="0.888" stop-color="#FBB63F" stop-opacity="0.508"/>
      <stop offset="0.903" stop-color="#FBB040" stop-opacity="0.6"/>
      <stop offset="0.952" stop-color="#FBB040"/>
      <stop offset="1" stop-color="#F9ED32" stop-opacity="0.2"/>
    </linearGradient>
    <linearGradient id="Gradient_18" gradientUnits="userSpaceOnUse" x1="455.262" y1="210.528" x2="470.27" y2="210.528">
      <stop offset="0.024" stop-color="#FFF28B"/>
      <stop offset="0.952" stop-color="#FFFFFF" stop-opacity="0"/>
    </linearGradient>
    <linearGradient id="Gradient_19" gradientUnits="userSpaceOnUse" x1="441.446" y1="202.274" x2="471.445" y2="254.148">
      <stop offset="0.024" stop-color="#FFF297"/>
      <stop offset="0.952" stop-color="#FFFFFF" stop-opacity="0"/>
    </linearGradient>
    <radialGradient id="Gradient_20" gradientUnits="userSpaceOnUse" cx="550.894" cy="251.008" r="43.829" gradientTransform="matrix(1, 0, 0, 1.215, 0, -53.996)">
      <stop offset="0.484" stop-color="#ED0024" stop-opacity="0.4"/>
      <stop offset="0.914" stop-color="#FFFFFF"/>
      <stop offset="0.995" stop-color="#ED1C24"/>
    </radialGradient>
    <linearGradient id="Gradient_21" gradientUnits="userSpaceOnUse" x1="550.894" y1="290.479" x2="550.894" y2="307.351">
      <stop offset="0.043" stop-color="#6D6E71"/>
      <stop offset="0.054" stop-color="#8A8B8D"/>
      <stop offset="0.071" stop-color="#AEAEB0"/>
      <stop offset="0.088" stop-color="#CBCCCD"/>
      <stop offset="0.106" stop-color="#E2E2E3"/>
      <stop offset="0.126" stop-color="#F2F2F3"/>
      <stop offset="0.148" stop-color="#FCFCFC"/>
      <stop offset="0.177" stop-color="#FFFFFF"/>
      <stop offset="0.55" stop-color="#FFFFFF"/>
      <stop offset="0.608" stop-color="#FFFFFF"/>
      <stop offset="0.662" stop-color="#FBFBFB"/>
      <stop offset="0.719" stop-color="#EEEEEE"/>
      <stop offset="0.777" stop-color="#D9D9D9"/>
      <stop offset="0.836" stop-color="#BCBCBC"/>
      <stop offset="0.895" stop-color="#969697"/>
      <stop offset="0.955" stop-color="#696869"/>
      <stop offset="1" stop-color="#414042"/>
    </linearGradient>
    <linearGradient id="Gradient_22" gradientUnits="userSpaceOnUse" x1="520.651" y1="251.007" x2="581.137" y2="251.007">
      <stop offset="0.016" stop-color="#EF4136" stop-opacity="0.4"/>
      <stop offset="0.059" stop-color="#ED1C24" stop-opacity="0.4"/>
      <stop offset="0.102" stop-color="#ED1C24" stop-opacity="0.3"/>
      <stop offset="0.145" stop-color="#ED1C24"/>
      <stop offset="0.21" stop-color="#ED1C24" stop-opacity="0.7"/>
      <stop offset="0.333" stop-color="#ED1C24" stop-opacity="0.5"/>
      <stop offset="0.484" stop-color="#ED1C24" stop-opacity="0.2"/>
      <stop offset="0.65" stop-color="#ED1C24" stop-opacity="0"/>
      <stop offset="0.737" stop-color="#ED1C24" stop-opacity="0.4"/>
      <stop offset="0.839" stop-color="#ED1C24" stop-opacity="0.2"/>
      <stop offset="0.863" stop-color="#D41D29" stop-opacity="0.349"/>
      <stop offset="0.886" stop-color="#C41E2C" stop-opacity="0.491"/>
      <stop offset="0.903" stop-color="#BE1E2D" stop-opacity="0.6"/>
      <stop offset="0.952" stop-color="#ED1C24"/>
      <stop offset="1" stop-color="#BE1E2D" stop-opacity="0.2"/>
    </linearGradient>
    <linearGradient id="Gradient_23" gradientUnits="userSpaceOnUse" x1="516.32" y1="297.766" x2="585.473" y2="297.766">
      <stop offset="0.024" stop-color="#ED1C24" stop-opacity="0.7"/>
      <stop offset="0.03" stop-color="#E71C25" stop-opacity="0.67"/>
      <stop offset="0.056" stop-color="#D01D29" stop-opacity="0.537"/>
      <stop offset="0.08" stop-color="#C31E2C" stop-opacity="0.411"/>
      <stop offset="0.102" stop-color="#BE1E2D" stop-opacity="0.3"/>
      <stop offset="0.145" stop-color="#F15A29"/>
      <stop offset="0.21" stop-color="#ED1C24" stop-opacity="0.7"/>
      <stop offset="0.333" stop-color="#ED1C24" stop-opacity="0"/>
      <stop offset="0.484" stop-color="#ED1C24" stop-opacity="0.2"/>
      <stop offset="0.65" stop-color="#ED1C24" stop-opacity="0"/>
      <stop offset="0.758" stop-color="#ED1C24" stop-opacity="0.7"/>
      <stop offset="0.839" stop-color="#ED1C24" stop-opacity="0.2"/>
      <stop offset="0.856" stop-color="#CD1D28" stop-opacity="0.306"/>
      <stop offset="0.874" stop-color="#B21D2B" stop-opacity="0.421"/>
      <stop offset="0.891" stop-color="#A21E2C" stop-opacity="0.522"/>
      <stop offset="0.903" stop-color="#9C1E2D" stop-opacity="0.6"/>
      <stop offset="0.952" stop-color="#ED1C24"/>
      <stop offset="1" stop-color="#BE1E2D" stop-opacity="0.2"/>
    </linearGradient>
    <linearGradient id="Gradient_24" gradientUnits="userSpaceOnUse" x1="550.897" y1="290.479" x2="550.897" y2="307.351">
      <stop offset="0.043" stop-color="#ED1C24"/>
      <stop offset="0.087" stop-color="#ED1C24"/>
      <stop offset="0.468" stop-color="#ED1C24"/>
      <stop offset="0.929" stop-color="#ED1C24"/>
      <stop offset="1" stop-color="#ED1C24"/>
    </linearGradient>
    <linearGradient id="Gradient_25" gradientUnits="userSpaceOnUse" x1="555.859" y1="210.528" x2="570.867" y2="210.528">
      <stop offset="0.024" stop-color="#FFFFFF"/>
      <stop offset="0.952" stop-color="#FFFFFF" stop-opacity="0"/>
    </linearGradient>
    <linearGradient id="Gradient_26" gradientUnits="userSpaceOnUse" x1="542.043" y1="202.274" x2="572.042" y2="254.148">
      <stop offset="0.034" stop-color="#FFFFFF" stop-opacity="0.3"/>
      <stop offset="0.952" stop-color="#FFFFFF" stop-opacity="0"/>
    </linearGradient>
  </defs>
  <g id="Layer_1">
    <g>
      <g>
        <path d="M279.3,227.2 L279.3,305.2 L218.8,305.2 L218.8,227.2 C218.8,210.5 232.3,197 249,197 C257.3,197 264.9,200.4 270.4,205.9 C276,211.2 279.3,218.8 279.3,227.2 z" fill="url(#Gradient_1)"/>
        <g>
          <path d="M283.7,293.1 L283.7,305.1 L214.5,305.1 L214.5,293.1 L218.9,290.6 L219.1,290.4 L279.1,290.4 L279.3,290.6 z" fill="url(#Gradient_2)"/>
          <path d="M283.7,293.1 L283.7,305.1 L214.5,305.1 L214.5,293.1 L218.9,290.6 L219.1,290.4 L279.1,290.4 L279.3,290.6 z" fill-opacity="0" stroke="#58595B" stroke-width="0.057" stroke-miterlimit="10"/>
        </g>
        <path d="M262.2,305.5 L267,305.5 L267,603.1 L262.2,603.1 z" fill="#58595B"/>
        <path d="M272.3,294.7 L272.3,284.1 L268.3,284.1 L268.3,292.7 L269.4,294.9 L269.4,305.5 L274.8,305.5 L274.8,294.7 z" fill="#414042" opacity="0.6"/>
        <path d="M274.8,265.9 L274.8,286.1 L264,286.1 C258.5,286.1 254,281.6 254,276.1 L254,265.9 L274.8,265.9 z" fill="#34383C" opacity="0.6"/>
        <path d="M274.8,265.9 L253.3,265.9 L253.3,263.9 L270.3,263.9 z" fill="#616568" opacity="0.6"/>
        <path d="M260.3,285.4 L260.3,272 C260.3,271.1 261,270.4 261.9,270.4 L261.9,270.4 C262.8,270.4 263.5,271.1 263.5,272 L263.5,286.1 L260.3,285.4 z" fill="#5E6268" opacity="0.6"/>
        <path d="M234.9,305.1 L239.7,305.1 L239.7,602.7 L234.9,602.7 z" fill="#58595B"/>
        <path d="M229.6,291.9 L229.6,281.4 L233.6,281.4 L233.6,289.9 L232.4,292.2 L232.4,302.7 L227,302.7 L227,291.9 z" fill="#414042"/>
        <path d="M227,263.2 L227,283.4 L237.8,283.4 C243.3,283.4 247.8,278.9 247.8,273.4 L247.8,263.2 L227,263.2 z" fill="#34383C" opacity="0.49"/>
        <path d="M227,263.2 L248.5,263.2 L248.5,261.2 L231.6,261.2 z" fill="#616568" opacity="0.49"/>
        <path d="M238.4,283.3 L238.4,269.2 C238.4,268.3 239.1,267.6 240,267.6 L240,267.6 C240.9,267.6 241.6,268.3 241.6,269.2 L241.6,282.6 L238.4,283.3 z" fill="#5E6268" opacity="0.49"/>
        <path d="M279.3,227.2 L279.3,305.2 L218.8,305.2 L218.8,227.2 C218.8,210.5 232.3,197 249,197 C257.3,197 264.9,200.4 270.4,205.9 C276,211.2 279.3,218.8 279.3,227.2 z" fill="url(#Gradient_3)"/>
        <path d="M283.7,293.1 L283.7,305.1 L214.5,305.1 L214.5,293.1 L218.9,290.6 L219.1,290.4 L279.1,290.4 L279.3,290.6 z" fill="url(#Gradient_4)"/>
        <path d="M214.5,305.1 L220.6,306.4 L279.3,306.4 L283.7,305.1 z" fill="url(#Gradient_5)"/>
        <path d="M254.1,204.2 C254.1,204.2 266.1,206.8 269.1,216.8 C269.1,216.8 266.4,210.6 254.1,204.2 z" fill="url(#Gradient_6)"/>
        <path d="M241.4,206.5 C241.4,206.5 266.1,219.8 263.6,258.5 C263.6,258.5 274.6,216 241.4,206.5 z" fill="url(#Gradient_7)"/>
        <path d="M264.6,344.1 L264.6,344.1 C262.5,344.1 260.8,345.8 260.8,347.9 L260.8,360.8 C260.8,362.9 262.5,364.6 264.6,364.6 L264.6,364.6 C266.7,364.6 268.4,362.9 268.4,360.8 L268.4,347.9 C268.4,345.8 266.7,344.1 264.6,344.1 z" fill="#58595B"/>
        <path d="M237.2,344.1 L237.2,344.1 C235.1,344.1 233.4,345.8 233.4,347.9 L233.4,360.8 C233.4,362.9 235.1,364.6 237.2,364.6 L237.2,364.6 C239.3,364.6 241,362.9 241,360.8 L241,347.9 C241,345.8 239.3,344.1 237.2,344.1 z" fill="#58595B"/>
      </g>
      <g>
        <path d="M379.9,227.2 L379.9,305.2 L319.4,305.2 L319.4,227.2 C319.4,210.5 332.9,197 349.6,197 C357.9,197 365.5,200.4 371,205.9 C376.6,211.2 379.9,218.8 379.9,227.2 z" fill="url(#Gradient_8)"/>
        <g>
          <path d="M384.3,293.1 L384.3,305.1 L315.1,305.1 L315.1,293.1 L319.5,290.6 L319.7,290.4 L379.7,290.4 L379.9,290.6 z" fill="url(#Gradient_9)"/>
          <path d="M384.3,293.1 L384.3,305.1 L315.1,305.1 L315.1,293.1 L319.5,290.6 L319.7,290.4 L379.7,290.4 L379.9,290.6 z" fill-opacity="0" stroke="#58595B" stroke-width="0.057" stroke-miterlimit="10"/>
        </g>
        <path d="M362.8,305.5 L367.6,305.5 L367.6,603.1 L362.8,603.1 z" fill="#58595B"/>
        <path d="M372.9,294.7 L372.9,284.1 L368.9,284.1 L368.9,292.7 L370,294.9 L370,305.5 L375.4,305.5 L375.4,294.7 z" fill="#414042" opacity="0.6"/>
        <path d="M375.4,265.9 L375.4,286.1 L364.6,286.1 C359.1,286.1 354.6,281.6 354.6,276.1 L354.6,265.9 L375.4,265.9 z" fill="#34383C" opacity="0.6"/>
        <path d="M375.4,265.9 L353.9,265.9 L353.9,263.9 L370.8,263.9 z" fill="#616568" opacity="0.6"/>
        <path d="M360.9,285.4 L360.9,272 C360.9,271.1 361.6,270.4 362.5,270.4 L362.5,270.4 C363.4,270.4 364.1,271.1 364.1,272 L364.1,286.1 L360.9,285.4 z" fill="#5E6268" opacity="0.6"/>
        <path d="M335.5,305.1 L340.3,305.1 L340.3,602.7 L335.5,602.7 z" fill="#58595B"/>
        <path d="M330.2,291.9 L330.2,281.4 L334.2,281.4 L334.2,289.9 L333,292.2 L333,302.7 L327.6,302.7 L327.6,291.9 z" fill="#414042"/>
        <path d="M327.6,263.2 L327.6,283.4 L338.4,283.4 C343.9,283.4 348.4,278.9 348.4,273.4 L348.4,263.2 L327.6,263.2 z" fill="#34383C" opacity="0.49"/>
        <path d="M327.6,263.2 L349.1,263.2 L349.1,261.2 L332.2,261.2 z" fill="#616568" opacity="0.49"/>
        <path d="M339,283.3 L339,269.2 C339,268.3 339.7,267.6 340.6,267.6 L340.6,267.6 C341.5,267.6 342.2,268.3 342.2,269.2 L342.2,282.6 L339,283.3 z" fill="#5E6268" opacity="0.49"/>
        <path d="M379.9,227.2 L379.9,305.2 L319.4,305.2 L319.4,227.2 C319.4,210.5 332.9,197 349.6,197 C357.9,197 365.5,200.4 371,205.9 C376.6,211.2 379.9,218.8 379.9,227.2 z" fill="url(#Gradient_10)"/>
        <path d="M385.6,293.1 L385.6,305.1 L316.4,305.1 L316.4,293.1 L320.8,290.6 L321,290.4 L381,290.4 L381.3,290.6 z" fill="url(#Gradient_11)"/>
        <path d="M315.1,305.1 L321.2,306.4 L379.9,306.4 L384.3,305.1 z" fill="#1C75BC"/>
        <path d="M354.7,204.2 C354.7,204.2 366.7,206.8 369.7,216.8 C369.7,216.8 367,210.6 354.7,204.2 z" fill="url(#Gradient_12)"/>
        <path d="M342,206.5 C342,206.5 366.7,219.8 364.2,258.5 C364.2,258.5 375.1,216 342,206.5 z" fill="url(#Gradient_13)"/>
        <path d="M365.2,344.1 L365.2,344.1 C363.1,344.1 361.4,345.8 361.4,347.9 L361.4,360.8 C361.4,362.9 363.1,364.6 365.2,364.6 L365.2,364.6 C367.3,364.6 369,362.9 369,360.8 L369,347.9 C369,345.8 367.3,344.1 365.2,344.1 z" fill="#58595B"/>
        <path d="M337.8,344.1 L337.8,344.1 C335.7,344.1 334,345.8 334,347.9 L334,360.8 C334,362.9 335.7,364.6 337.8,364.6 L337.8,364.6 C339.9,364.6 341.6,362.9 341.6,360.8 L341.6,347.9 C341.6,345.8 339.9,344.1 337.8,344.1 z" fill="#58595B"/>
      </g>
      <g>
        <path d="M480.5,227.2 L480.5,305.2 L420,305.2 L420,227.2 C420,210.5 433.5,197 450.2,197 C458.5,197 466.1,200.4 471.6,205.9 C477.2,211.2 480.5,218.8 480.5,227.2 z" fill="url(#Gradient_14)"/>
        <g>
          <path d="M484.9,293.1 L484.9,305.1 L415.7,305.1 L415.7,293.1 L420.1,290.6 L420.3,290.4 L480.3,290.4 L480.5,290.6 z" fill="url(#Gradient_15)"/>
          <path d="M484.9,293.1 L484.9,305.1 L415.7,305.1 L415.7,293.1 L420.1,290.6 L420.3,290.4 L480.3,290.4 L480.5,290.6 z" fill-opacity="0" stroke="#58595B" stroke-width="0.057" stroke-miterlimit="10"/>
        </g>
        <path d="M463.4,305.5 L468.2,305.5 L468.2,603.1 L463.4,603.1 z" fill="#58595B"/>
        <path d="M473.5,294.7 L473.5,284.1 L469.5,284.1 L469.5,292.7 L470.6,294.9 L470.6,305.5 L476,305.5 L476,294.7 z" fill="#414042" opacity="0.6"/>
        <path d="M476,265.9 L476,286.1 L465.2,286.1 C459.7,286.1 455.2,281.6 455.2,276.1 L455.2,265.9 L476,265.9 z" fill="#34383C" opacity="0.6"/>
        <path d="M476,265.9 L454.5,265.9 L454.5,263.9 L471.4,263.9 z" fill="#616568" opacity="0.6"/>
        <path d="M461.5,285.4 L461.5,272 C461.5,271.1 462.2,270.4 463.1,270.4 L463.1,270.4 C464,270.4 464.7,271.1 464.7,272 L464.7,286.1 L461.5,285.4 z" fill="#5E6268" opacity="0.6"/>
        <path d="M436.1,305.1 L440.9,305.1 L440.9,602.7 L436.1,602.7 z" fill="#58595B"/>
        <path d="M430.8,291.9 L430.8,281.4 L434.8,281.4 L434.8,289.9 L433.6,292.2 L433.6,302.7 L428.2,302.7 L428.2,291.9 z" fill="#414042"/>
        <path d="M428.2,263.2 L428.2,283.4 L439,283.4 C444.5,283.4 449,278.9 449,273.4 L449,263.2 L428.2,263.2 z" fill="#34383C" opacity="0.49"/>
        <path d="M428.2,263.2 L449.7,263.2 L449.7,261.2 L432.8,261.2 z" fill="#616568" opacity="0.49"/>
        <path d="M439.6,283.3 L439.6,269.2 C439.6,268.3 440.3,267.6 441.2,267.6 L441.2,267.6 C442.1,267.6 442.8,268.3 442.8,269.2 L442.8,282.6 L439.6,283.3 z" fill="#5E6268" opacity="0.49"/>
        <path d="M480.5,227.2 L480.5,305.2 L420,305.2 L420,227.2 C420,210.5 433.5,197 450.2,197 C458.5,197 466.1,200.4 471.6,205.9 C477.2,211.2 480.5,218.8 480.5,227.2 z" fill="url(#Gradient_16)"/>
        <path d="M484.3,293.1 L484.3,305.1 L415.2,305.1 L415.2,293.1 L419.5,290.6 L419.7,290.4 L479.7,290.4 L480,290.6 z" fill="url(#Gradient_17)"/>
        <path d="M415.7,305.1 L421.8,306.4 L480.5,306.4 L484.9,305.1 z" fill="#FFB817"/>
        <path d="M455.3,204.2 C455.3,204.2 467.3,206.8 470.3,216.8 C470.3,216.8 467.6,210.6 455.3,204.2 z" fill="url(#Gradient_18)"/>
        <path d="M442.6,206.5 C442.6,206.5 467.3,219.8 464.8,258.5 C464.8,258.5 475.7,216 442.6,206.5 z" fill="url(#Gradient_19)"/>
        <path d="M465.8,344.1 L465.8,344.1 C463.7,344.1 462,345.8 462,347.9 L462,360.8 C462,362.9 463.7,364.6 465.8,364.6 L465.8,364.6 C467.9,364.6 469.6,362.9 469.6,360.8 L469.6,347.9 C469.6,345.8 467.9,344.1 465.8,344.1 z" fill="#58595B"/>
        <path d="M438.4,344.1 L438.4,344.1 C436.3,344.1 434.6,345.8 434.6,347.9 L434.6,360.8 C434.6,362.9 436.3,364.6 438.4,364.6 L438.4,364.6 C440.5,364.6 442.2,362.9 442.2,360.8 L442.2,347.9 C442.2,345.8 440.5,344.1 438.4,344.1 z" fill="#58595B"/>
      </g>
      <g>
        <path d="M581.1,227.2 L581.1,305.2 L520.6,305.2 L520.6,227.2 C520.6,210.5 534.1,197 550.8,197 C559.1,197 566.7,200.4 572.2,205.9 C577.8,211.2 581.1,218.8 581.1,227.2 z" fill="url(#Gradient_20)"/>
        <g>
          <path d="M585.5,293.1 L585.5,305.1 L516.3,305.1 L516.3,293.1 L520.6,290.6 L520.9,290.4 L580.9,290.4 L581.1,290.6 z" fill="url(#Gradient_21)"/>
          <path d="M585.5,293.1 L585.5,305.1 L516.3,305.1 L516.3,293.1 L520.6,290.6 L520.9,290.4 L580.9,290.4 L581.1,290.6 z" fill-opacity="0" stroke="#58595B" stroke-width="0.057" stroke-miterlimit="10"/>
        </g>
        <path d="M564,305.5 L568.8,305.5 L568.8,603.1 L564,603.1 z" fill="#58595B"/>
        <path d="M574.1,294.7 L574.1,284.1 L570.1,284.1 L570.1,292.7 L571.2,294.9 L571.2,305.5 L576.6,305.5 L576.6,294.7 z" fill="#414042" opacity="0.6"/>
        <path d="M576.6,265.9 L576.6,286.1 L565.8,286.1 C560.3,286.1 555.8,281.6 555.8,276.1 L555.8,265.9 L576.6,265.9 z" fill="#34383C" opacity="0.6"/>
        <path d="M576.6,265.9 L555.1,265.9 L555.1,263.9 L572,263.9 z" fill="#616568" opacity="0.6"/>
        <path d="M562.1,285.4 L562.1,272 C562.1,271.1 562.8,270.4 563.7,270.4 L563.7,270.4 C564.6,270.4 565.3,271.1 565.3,272 L565.3,286.1 L562.1,285.4 z" fill="#5E6268" opacity="0.6"/>
        <path d="M536.7,305.1 L541.5,305.1 L541.5,602.7 L536.7,602.7 z" fill="#58595B"/>
        <path d="M531.4,291.9 L531.4,281.4 L535.4,281.4 L535.4,289.9 L534.2,292.2 L534.2,302.7 L528.8,302.7 L528.8,291.9 z" fill="#414042"/>
        <path d="M528.8,263.2 L528.8,283.4 L539.6,283.4 C545.1,283.4 549.6,278.9 549.6,273.4 L549.6,263.2 L528.8,263.2 z" fill="#34383C" opacity="0.49"/>
        <path d="M528.8,263.2 L550.3,263.2 L550.3,261.2 L533.4,261.2 z" fill="#616568" opacity="0.49"/>
        <path d="M540.2,283.3 L540.2,269.2 C540.2,268.3 540.9,267.6 541.8,267.6 L541.8,267.6 C542.7,267.6 543.4,268.3 543.4,269.2 L543.4,282.6 L540.2,283.3 z" fill="#5E6268" opacity="0.49"/>
        <path d="M581.1,227.2 L581.1,305.2 L520.6,305.2 L520.6,227.2 C520.6,210.5 534.1,197 550.8,197 C559.1,197 566.7,200.4 572.2,205.9 C577.8,211.2 581.1,218.8 581.1,227.2 z" fill="url(#Gradient_22)"/>
        <path d="M585.5,293.1 L585.5,305.1 L516.3,305.1 L516.3,293.1 L520.7,290.6 L520.9,290.4 L580.9,290.4 L581.1,290.6 z" fill="url(#Gradient_23)"/>
        <path d="M516.3,305.1 L522.4,306.4 L581.1,306.4 L585.5,305.1 z" fill="url(#Gradient_24)"/>
        <path d="M555.9,204.2 C555.9,204.2 567.9,206.8 570.9,216.8 C570.9,216.8 568.2,210.6 555.9,204.2 z" fill="url(#Gradient_25)"/>
        <path d="M543.2,206.5 C543.2,206.5 567.9,219.8 565.4,258.5 C565.3,258.5 576.3,216 543.2,206.5 z" fill="url(#Gradient_26)"/>
        <path d="M566.4,344.1 L566.4,344.1 C564.3,344.1 562.6,345.8 562.6,347.9 L562.6,360.8 C562.6,362.9 564.3,364.6 566.4,364.6 L566.4,364.6 C568.5,364.6 570.2,362.9 570.2,360.8 L570.2,347.9 C570.2,345.8 568.5,344.1 566.4,344.1 z" fill="#58595B"/>
        <path d="M539,344.1 L539,344.1 C536.9,344.1 535.2,345.8 535.2,347.9 L535.2,360.8 C535.2,362.9 536.9,364.6 539,364.6 L539,364.6 C541.1,364.6 542.8,362.9 542.8,360.8 L542.8,347.9 C542.8,345.8 541.1,344.1 539,344.1 z" fill="#58595B"/>
      </g>
    </g>
  </g>
</svg>
